<svg xmlns="http://www.w3.org/2000/svg" viewBox="0 0 210 297" width="210" height="297">
  <rect width="210" height="297" fill="#ffffff"/>
  <rect x="8" y="8" width="194" height="281" rx="7" fill="#fff" stroke="#cbd5e1"/>
  <rect x="8" y="8" width="194" height="56" rx="7" fill="#7c3aed"/>
  <circle cx="34" cy="36" r="12" fill="#ffffff" opacity="0.22"/>
  <rect x="54" y="24" width="72" height="9" rx="4.5" fill="#ffffff" opacity="0.96"/>
  <rect x="54" y="40" width="42" height="4" rx="2" fill="#ffffff" opacity="0.7"/>
  <rect x="24" y="82" width="48" height="6" rx="3" fill="#7c3aed"/>
  <rect x="24" y="95" width="160" height="4" rx="2" fill="#cbd5e1"/>
  <rect x="24" y="106" width="146" height="4" rx="2" fill="#cbd5e1"/>
  <rect x="24" y="117" width="152" height="4" rx="2" fill="#cbd5e1"/>
  <rect x="24" y="140" width="48" height="6" rx="3" fill="#7c3aed"/>
  <rect x="24" y="153" width="162" height="24" rx="6" fill="#faf5ff" stroke="#e9d5ff"/>
  <rect x="32" y="161" width="116" height="4" rx="2" fill="#475569"/>
  <rect x="32" y="170" width="74" height="4" rx="2" fill="#94a3b8"/>
  <rect x="24" y="191" width="48" height="6" rx="3" fill="#7c3aed"/>
  <rect x="24" y="204" width="162" height="24" rx="6" fill="#faf5ff" stroke="#e9d5ff"/>
  <rect x="32" y="212" width="108" height="4" rx="2" fill="#475569"/>
  <rect x="32" y="221" width="90" height="4" rx="2" fill="#94a3b8"/>
  <rect x="24" y="250" width="48" height="6" rx="3" fill="#7c3aed"/>
  <rect x="24" y="263" width="134" height="4" rx="2" fill="#e9d5ff"/>
</svg>