<svg xmlns="http://www.w3.org/2000/svg" viewBox="0 0 210 297" width="210" height="297">
  <rect width="210" height="297" fill="#ffffff"/>
  <rect x="8" y="8" width="194" height="281" rx="7" fill="#fff" stroke="#cbd5e1"/>
  <rect x="8" y="8" width="194" height="74" rx="7" fill="#0284c7"/>
  <circle cx="40" cy="45" r="18" fill="#ffffff" opacity="0.22"/>
  <rect x="70" y="24" width="86" height="9" rx="4.5" fill="#ffffff" opacity="0.96"/>
  <rect x="70" y="40" width="60" height="4" rx="2" fill="#ffffff" opacity="0.75"/>
  <rect x="70" y="52" width="72" height="4" rx="2" fill="#ffffff" opacity="0.6"/>
  <rect x="24" y="98" width="50" height="6" rx="3" fill="#0284c7"/>
  <rect x="24" y="111" width="162" height="4" rx="2" fill="#cbd5e1"/>
  <rect x="24" y="122" width="156" height="4" rx="2" fill="#cbd5e1"/>
  <rect x="24" y="145" width="50" height="6" rx="3" fill="#0284c7"/>
  <rect x="24" y="158" width="162" height="24" rx="6" fill="#ecfeff" stroke="#bae6fd"/>
  <rect x="32" y="166" width="118" height="4" rx="2" fill="#475569"/>
  <rect x="32" y="175" width="82" height="4" rx="2" fill="#94a3b8"/>
  <rect x="24" y="198" width="50" height="6" rx="3" fill="#0284c7"/>
  <rect x="24" y="211" width="162" height="24" rx="6" fill="#ecfeff" stroke="#bae6fd"/>
  <rect x="32" y="219" width="108" height="4" rx="2" fill="#475569"/>
  <rect x="32" y="228" width="92" height="4" rx="2" fill="#94a3b8"/>
  <rect x="24" y="255" width="50" height="6" rx="3" fill="#0284c7"/>
  <rect x="24" y="268" width="132" height="4" rx="2" fill="#bae6fd"/>
</svg>