<svg xmlns="http://www.w3.org/2000/svg" viewBox="0 0 210 297" width="210" height="297">
  <defs>
    <linearGradient id="bg" x1="0" y1="0" x2="1" y2="1">
      <stop offset="0%" stop-color="#ffffff"/>
      <stop offset="100%" stop-color="#f8fafc"/>
    </linearGradient>
  </defs>
  <rect width="210" height="297" fill="#e2e8f0"/>
  <rect x="8" y="8" width="194" height="281" rx="7" fill="url(#bg)" stroke="#cbd5e1"/>
  <rect x="24" y="24" width="86" height="10" rx="5" fill="#2563eb"/>
  <rect x="24" y="42" width="58" height="5" rx="2.5" fill="#94a3b8"/>
  <rect x="24" y="55" width="162" height="2" fill="#cbd5e1"/>
  <rect x="24" y="68" width="140" height="6" rx="3" fill="#0f172a"/>
  <rect x="24" y="82" width="110" height="4" rx="2" fill="#475569"/>
  <rect x="24" y="100" width="52" height="6" rx="3" fill="#2563eb"/>
  <rect x="24" y="112" width="162" height="4" rx="2" fill="#cbd5e1"/>
  <rect x="24" y="123" width="150" height="4" rx="2" fill="#cbd5e1"/>
  <rect x="24" y="134" width="135" height="4" rx="2" fill="#cbd5e1"/>
  <rect x="24" y="154" width="48" height="6" rx="3" fill="#2563eb"/>
  <rect x="24" y="167" width="162" height="28" rx="6" fill="#fff" stroke="#e2e8f0"/>
  <rect x="32" y="175" width="120" height="4" rx="2" fill="#475569"/>
  <rect x="32" y="184" width="78" height="4" rx="2" fill="#94a3b8"/>
  <rect x="24" y="203" width="48" height="6" rx="3" fill="#2563eb"/>
  <rect x="24" y="216" width="162" height="28" rx="6" fill="#fff" stroke="#e2e8f0"/>
  <rect x="32" y="224" width="110" height="4" rx="2" fill="#475569"/>
  <rect x="32" y="233" width="96" height="4" rx="2" fill="#94a3b8"/>
  <rect x="24" y="258" width="48" height="6" rx="3" fill="#2563eb"/>
  <rect x="24" y="271" width="132" height="6" rx="3" fill="#2563eb" opacity="0.18"/>
</svg>