<svg xmlns="http://www.w3.org/2000/svg" viewBox="0 0 210 297" width="210" height="297">
  <rect width="210" height="297" fill="#ffffff"/>
  <rect x="8" y="8" width="194" height="281" rx="7" fill="#fff" stroke="#cbd5e1"/>
  <rect x="24" y="22" width="74" height="8" rx="4" fill="#1d4ed8"/>
  <rect x="24" y="36" width="44" height="4" rx="2" fill="#64748b"/>
  <rect x="24" y="52" width="72" height="4" rx="2" fill="#cbd5e1"/>
  <rect x="108" y="22" width="54" height="8" rx="4" fill="#1d4ed8" opacity="0.2"/>
  <rect x="24" y="70" width="74" height="40" rx="8" fill="#eff6ff" stroke="#bfdbfe"/>
  <rect x="32" y="80" width="50" height="4" rx="2" fill="#475569"/>
  <rect x="32" y="89" width="32" height="4" rx="2" fill="#94a3b8"/>
  <rect x="108" y="70" width="74" height="40" rx="8" fill="#eff6ff" stroke="#bfdbfe"/>
  <rect x="116" y="80" width="48" height="4" rx="2" fill="#475569"/>
  <rect x="116" y="89" width="30" height="4" rx="2" fill="#94a3b8"/>
  <rect x="24" y="118" width="74" height="40" rx="8" fill="#eff6ff" stroke="#bfdbfe"/>
  <rect x="32" y="128" width="42" height="4" rx="2" fill="#475569"/>
  <rect x="32" y="137" width="34" height="4" rx="2" fill="#94a3b8"/>
  <rect x="108" y="118" width="74" height="40" rx="8" fill="#eff6ff" stroke="#bfdbfe"/>
  <rect x="116" y="128" width="46" height="4" rx="2" fill="#475569"/>
  <rect x="116" y="137" width="28" height="4" rx="2" fill="#94a3b8"/>
  <rect x="24" y="174" width="162" height="6" rx="3" fill="#1d4ed8"/>
  <rect x="24" y="188" width="126" height="4" rx="2" fill="#cbd5e1"/>
  <rect x="24" y="200" width="100" height="4" rx="2" fill="#cbd5e1"/>
  <rect x="24" y="224" width="54" height="6" rx="3" fill="#1d4ed8"/>
  <rect x="24" y="238" width="160" height="18" rx="6" fill="#f8fafc" stroke="#e2e8f0"/>
  <rect x="32" y="245" width="56" height="4" rx="2" fill="#475569"/>
  <rect x="96" y="245" width="52" height="4" rx="2" fill="#94a3b8"/>
</svg>