<svg xmlns="http://www.w3.org/2000/svg" viewBox="0 0 210 297" width="210" height="297">
  <rect width="210" height="297" fill="#0f172a"/>
  <rect x="8" y="8" width="194" height="281" rx="7" fill="#111827" stroke="#334155"/>
  <rect x="8" y="8" width="56" height="281" rx="7" fill="#06b6d4"/>
  <rect x="18" y="22" width="34" height="34" rx="17" fill="#ffffff" opacity="0.15"/>
  <rect x="18" y="70" width="34" height="5" rx="2.5" fill="#ffffff" opacity="0.92"/>
  <rect x="18" y="82" width="24" height="4" rx="2" fill="#ffffff" opacity="0.6"/>
  <rect x="18" y="115" width="24" height="5" rx="2.5" fill="#ffffff" opacity="0.92"/>
  <rect x="18" y="127" width="18" height="4" rx="2" fill="#ffffff" opacity="0.6"/>
  <rect x="18" y="157" width="24" height="5" rx="2.5" fill="#ffffff" opacity="0.92"/>
  <rect x="18" y="169" width="20" height="4" rx="2" fill="#ffffff" opacity="0.6"/>
  <rect x="18" y="204" width="24" height="5" rx="2.5" fill="#ffffff" opacity="0.92"/>
  <rect x="18" y="216" width="16" height="4" rx="2" fill="#ffffff" opacity="0.6"/>
  <rect x="81" y="24" width="88" height="8" rx="4" fill="#e2e8f0"/>
  <rect x="81" y="40" width="52" height="4" rx="2" fill="#94a3b8"/>
  <rect x="81" y="58" width="96" height="5" rx="2.5" fill="#06b6d4"/>
  <rect x="81" y="71" width="110" height="4" rx="2" fill="#334155"/>
  <rect x="81" y="83" width="92" height="4" rx="2" fill="#334155"/>
  <rect x="81" y="113" width="76" height="5" rx="2.5" fill="#06b6d4"/>
  <rect x="81" y="126" width="112" height="25" rx="6" fill="#0b1220" stroke="#334155"/>
  <rect x="89" y="134" width="82" height="4" rx="2" fill="#e2e8f0"/>
  <rect x="89" y="143" width="60" height="4" rx="2" fill="#94a3b8"/>
  <rect x="81" y="166" width="76" height="5" rx="2.5" fill="#06b6d4"/>
  <rect x="81" y="179" width="112" height="25" rx="6" fill="#0b1220" stroke="#334155"/>
  <rect x="89" y="187" width="70" height="4" rx="2" fill="#e2e8f0"/>
  <rect x="89" y="196" width="88" height="4" rx="2" fill="#94a3b8"/>
  <rect x="81" y="229" width="76" height="5" rx="2.5" fill="#06b6d4"/>
  <rect x="81" y="242" width="90" height="4" rx="2" fill="#334155"/>
  <rect x="81" y="254" width="66" height="4" rx="2" fill="#334155"/>
</svg>