<svg xmlns="http://www.w3.org/2000/svg" viewBox="0 0 210 297" width="210" height="297">
  <rect width="210" height="297" fill="#ffffff"/>
  <rect x="8" y="8" width="194" height="281" rx="7" fill="#fff" stroke="#cbd5e1"/>
  <rect x="24" y="24" width="100" height="4" rx="2" fill="#0f172a"/>
  <rect x="24" y="36" width="60" height="3" rx="1.5" fill="#64748b"/>
  <rect x="24" y="52" width="30" height="2" rx="1" fill="#cbd5e1"/>
  <rect x="24" y="72" width="28" height="5" rx="2.5" fill="#7f1d1d"/>
  <rect x="24" y="86" width="158" height="2" fill="#e2e8f0"/>
  <rect x="24" y="102" width="120" height="4" rx="2" fill="#475569"/>
  <rect x="24" y="113" width="130" height="3" rx="1.5" fill="#94a3b8"/>
  <rect x="24" y="124" width="118" height="3" rx="1.5" fill="#cbd5e1"/>
  <rect x="24" y="148" width="34" height="4" rx="2" fill="#7f1d1d"/>
  <rect x="24" y="160" width="154" height="24" rx="2" fill="#fff" stroke="#e2e8f0"/>
  <rect x="32" y="168" width="104" height="3" rx="1.5" fill="#475569"/>
  <rect x="32" y="176" width="68" height="3" rx="1.5" fill="#94a3b8"/>
  <rect x="24" y="198" width="34" height="4" rx="2" fill="#7f1d1d"/>
  <rect x="24" y="210" width="154" height="24" rx="2" fill="#fff" stroke="#e2e8f0"/>
  <rect x="32" y="218" width="112" height="3" rx="1.5" fill="#475569"/>
  <rect x="32" y="226" width="62" height="3" rx="1.5" fill="#94a3b8"/>
  <rect x="24" y="254" width="34" height="4" rx="2" fill="#7f1d1d"/>
  <rect x="24" y="266" width="120" height="3" rx="1.5" fill="#cbd5e1"/>
</svg>