<svg xmlns="http://www.w3.org/2000/svg" viewBox="0 0 210 297" width="210" height="297">
  <rect width="210" height="297" fill="#f8fafc"/>
  <rect x="8" y="8" width="194" height="281" rx="7" fill="#ffffff" stroke="#cbd5e1"/>
  <rect x="8" y="8" width="58" height="281" rx="7" fill="#4f46e5"/>
  <rect x="18" y="24" width="36" height="36" rx="18" fill="#ffffff" opacity="0.2"/>
  <rect x="18" y="74" width="36" height="6" rx="3" fill="#ffffff" opacity="0.9"/>
  <rect x="18" y="86" width="28" height="4" rx="2" fill="#ffffff" opacity="0.65"/>
  <rect x="18" y="116" width="28" height="5" rx="2.5" fill="#ffffff" opacity="0.9"/>
  <rect x="18" y="128" width="20" height="4" rx="2" fill="#ffffff" opacity="0.65"/>
  <rect x="18" y="149" width="28" height="5" rx="2.5" fill="#ffffff" opacity="0.9"/>
  <rect x="18" y="161" width="24" height="4" rx="2" fill="#ffffff" opacity="0.65"/>
  <rect x="18" y="193" width="28" height="5" rx="2.5" fill="#ffffff" opacity="0.9"/>
  <rect x="18" y="205" width="18" height="4" rx="2" fill="#ffffff" opacity="0.65"/>
  <rect x="82" y="24" width="82" height="8" rx="4" fill="#0f172a"/>
  <rect x="82" y="40" width="48" height="4" rx="2" fill="#64748b"/>
  <rect x="82" y="58" width="110" height="5" rx="2.5" fill="#4f46e5"/>
  <rect x="82" y="71" width="100" height="4" rx="2" fill="#cbd5e1"/>
  <rect x="82" y="83" width="92" height="4" rx="2" fill="#cbd5e1"/>
  <rect x="82" y="113" width="70" height="5" rx="2.5" fill="#4f46e5"/>
  <rect x="82" y="126" width="110" height="24" rx="6" fill="#fff" stroke="#e2e8f0"/>
  <rect x="90" y="134" width="86" height="4" rx="2" fill="#475569"/>
  <rect x="90" y="143" width="56" height="4" rx="2" fill="#94a3b8"/>
  <rect x="82" y="164" width="70" height="5" rx="2.5" fill="#4f46e5"/>
  <rect x="82" y="177" width="110" height="24" rx="6" fill="#fff" stroke="#e2e8f0"/>
  <rect x="90" y="185" width="70" height="4" rx="2" fill="#475569"/>
  <rect x="90" y="194" width="82" height="4" rx="2" fill="#94a3b8"/>
  <rect x="82" y="225" width="70" height="5" rx="2.5" fill="#4f46e5"/>
  <rect x="82" y="238" width="94" height="4" rx="2" fill="#cbd5e1"/>
  <rect x="82" y="250" width="78" height="4" rx="2" fill="#cbd5e1"/>
</svg>